<?xml version="1.0" encoding="utf-8"?>
<!-- Generator: Adobe Illustrator 24.0.3, SVG Export Plug-In . SVG Version: 6.00 Build 0)  -->
<svg version="1.1" id="Layer_1" xmlns="http://www.w3.org/2000/svg" xmlns:xlink="http://www.w3.org/1999/xlink" x="0px" y="0px"
	 viewBox="0 0 214.38 193.16" style="enable-background:new 0 0 214.38 193.16;" xml:space="preserve">
<style type="text/css">
	.st0{fill:#8D7962;}
	.st1{fill:#514F4E;}
</style>
<path class="st0" d="M51.92,76H37.1V38.7h15.35c6.5,0,10.71,3.41,10.71,9.7c0,3.78-2.02,6.13-4.74,7.46
	c2.93,0.8,6.29,3.52,6.29,8.68C64.7,72.11,60.07,76,51.92,76z M52.39,43.82H42.38v9.64h10.02c3.68,0,5.17-2.29,5.17-4.74
	C57.56,45.95,56.12,43.82,52.39,43.82z M52.5,58.52H42.38v12.36h9.96c4.96,0,6.77-2.5,6.77-6.18C59.11,60.87,56.71,58.52,52.5,58.52
	z"/>
<path class="st0" d="M90.52,53.83c-1.17-0.64-2.4-1.01-4.21-1.01c-3.46,0-5.49,2.45-5.49,7.19V76h-5.49V48.03h5.49v2.66
	c1.28-1.86,3.62-3.25,6.39-3.25c2.24,0,3.62,0.43,4.74,1.17L90.52,53.83z"/>
<path class="st0" d="M110.36,76.59c-7.03,0-12.31-5.81-12.31-14.55c0-9.16,5.43-14.6,12.47-14.6c7.14,0,12.47,5.7,12.47,14.44
	C122.99,71.15,117.56,76.59,110.36,76.59z M110.31,52.66c-4.16,0-6.71,3.68-6.71,9.22c0,6.13,2.82,9.48,6.98,9.48
	s6.87-4.21,6.87-9.32C117.45,56.34,114.73,52.66,110.31,52.66z"/>
<path class="st0" d="M143.8,76.59c-7.03,0-12.31-5.81-12.31-14.55c0-9.16,5.43-14.6,12.47-14.6c7.14,0,12.47,5.7,12.47,14.44
	C156.43,71.15,150.99,76.59,143.8,76.59z M143.74,52.66c-4.16,0-6.71,3.68-6.71,9.22c0,6.13,2.82,9.48,6.98,9.48
	c4.16,0,6.87-4.21,6.87-9.32C150.88,56.34,148.17,52.66,143.74,52.66z"/>
<path class="st0" d="M182.19,76l-6.18-13.91l-4.26,5.65V76h-5.49V40.03l5.49-2.88v17.64c0,1.71-0.05,4.58-0.05,5.97
	c0.75-1.12,2.18-3.25,3.09-4.58l5.81-8.15h6.23l-7.09,9.38l8.42,18.6H182.19z"/>
<path class="st0" d="M59.71,122.59v-16.62H42.55v16.62h-5.59V85.3h5.59v15.08h17.16V85.3h5.59v37.3H59.71z"/>
<path class="st0" d="M86.24,123.18c-7.03,0-12.31-5.81-12.31-14.55c0-9.16,5.43-14.6,12.47-14.6c7.14,0,12.47,5.7,12.47,14.44
	C98.87,117.75,93.44,123.18,86.24,123.18z M86.19,99.26c-4.16,0-6.71,3.68-6.71,9.22c0,6.13,2.82,9.48,6.98,9.48
	c4.16,0,6.87-4.21,6.87-9.32C93.33,102.93,90.61,99.26,86.19,99.26z"/>
<path class="st0" d="M123.49,122.59v-2.66c-1.39,2.02-4.16,3.25-7.03,3.25c-6.5,0-9.96-4.26-9.96-12.52V94.62h5.49v15.82
	c0,5.65,2.13,7.67,5.75,7.67c3.68,0,5.75-2.61,5.75-7.14V94.62h5.49v27.97H123.49z"/>
<path class="st0" d="M147.2,123.18c-3.78,0-7.89-1.49-10.71-3.57l2.5-4.16c2.61,1.81,5.54,2.77,8.15,2.77
	c3.46,0,5.12-1.12,5.12-3.09c0-2.13-2.45-3.14-6.5-4.69c-6.02-2.34-8.21-4.37-8.21-8.79c0-5.01,3.94-7.62,9.54-7.62
	c3.52,0,6.98,1.28,9.48,3.09l-2.4,4.21c-2.29-1.6-4.58-2.4-7.25-2.4c-2.66,0-3.84,1.07-3.84,2.56c0,1.39,0.96,2.4,5.17,4.05
	c6.23,2.4,9.43,4.1,9.43,9.38C157.7,121.1,152.69,123.18,147.2,123.18z"/>
<path class="st0" d="M187.8,110.55h-18.49c0.59,5.38,3.62,7.67,7.03,7.67c2.34,0,4.21-0.85,6.07-2.24l3.25,3.52
	c-2.45,2.34-5.38,3.68-9.64,3.68c-6.55,0-12.1-5.27-12.1-14.55c0-9.48,5.01-14.6,12.25-14.6c7.94,0,11.78,6.45,11.78,14.01
	C187.96,109.06,187.86,109.97,187.8,110.55z M175.81,98.99c-3.68,0-5.91,2.56-6.39,7.03h13C182.15,102.19,180.34,98.99,175.81,98.99
	z"/>
<path class="st1" d="M37.26,165.33v-33.44h3.73v33.44H37.26z"/>
<path class="st1" d="M66.34,165.33v-14.66c0-5.4-1.91-7.83-5.92-7.83c-3.49,0-6.21,2.34-6.21,7.83v14.66h-3.58v-25.08h3.58v3.06
	c1.43-2.1,3.77-3.58,6.93-3.58c5.3,0,8.79,3.1,8.79,10.32v15.29H66.34z"/>
<path class="st1" d="M93.95,174.55v-12.28c-1.77,1.91-4.16,3.58-7.55,3.58c-5.02,0-8.98-3.82-8.98-12.66
	c0-8.88,4.2-13.47,9.46-13.47c3.15,0,5.3,1.34,7.07,3.34v-2.82h3.58v32.29L93.95,174.55z M93.95,146.6
	c-1.39-2.1-3.82-3.77-6.78-3.77c-4.16,0-6.21,3.58-6.21,10.32c0,6.31,2.39,9.6,6.35,9.6c2.68,0,4.87-1.43,6.64-3.63V146.6z"/>
<path class="st1" d="M122.08,165.33v-3.06c-1.43,2.1-3.77,3.58-6.93,3.58c-5.3,0-8.79-3.11-8.79-10.32v-15.29h3.58v14.66
	c0,5.4,1.91,7.83,5.92,7.83c3.49,0,6.21-2.34,6.21-7.83v-14.66h3.58v25.08H122.08z"/>
<path class="st1" d="M136.75,135.76c-1.48,0-2.63-1.15-2.63-2.53c0-1.43,1.15-2.58,2.63-2.58c1.34,0,2.48,1.15,2.48,2.58
	C139.23,134.61,138.09,135.76,136.75,135.76z M134.88,165.33v-25.08h3.58v25.08H134.88z"/>
<path class="st1" d="M160.49,143.98c-1-0.57-2.1-0.96-3.77-0.96c-3.49,0-5.45,2.82-5.45,7.6v14.71h-3.58v-25.08h3.58v3.1
	c1.15-2.01,3.54-3.63,6.21-3.63c1.86,0,3.06,0.24,3.92,0.62L160.49,143.98z"/>
<path class="st1" d="M175.2,174.17h-3.58l3.44-9.12l-8.93-24.79h3.77l6.11,18.2l0.86,2.58l0.86-2.53l6.16-18.25h3.77L175.2,174.17z"
	/>
<polygon class="st0" points="187.96,22.31 181.65,22.31 26.28,22.31 21.19,22.31 21.5,22.31 21.5,75.87 21.5,82.39 26.28,75.87 
	26.28,27.31 181.65,27.31 "/>
</svg>
